# xmcd CD database file
#
# Track frame offsets:
#	150
#	25035
#	41585
#	63865
#	88607
#	110717
#	130085
#	154497
#	175852
#
# Disc length: 2595 seconds
#
# Revision: 1
# Processed by: cddbd v1.5.2PL0 Copyright (c) Steve Scherf et al.
# Submitted via: CDex 1.51
#
DISCID=700a2109
DTITLE=Jimmy Scott - Doesn't Love Mean More
DYEAR=1990
DGENRE=Jazz
TTITLE0=Portrait Of Family
TTITLE1=How Can I Tell You
TTITLE2=To Say I Love You
TTITLE3=Blues For Little 'J'
TTITLE4=Another Side Of Me 
TTITLE5=I'll Love You Just The Same 
TTITLE6=You Were Right Next Door
TTITLE7=Itchy 
TTITLE8=Doesn't Love Mean More 
EXTD=YEAR: 1990
EXTT0=
EXTT1=
EXTT2=
EXTT3=
EXTT4=
EXTT5=
EXTT6=
EXTT7=
EXTT8=
PLAYORDER=
